<?xml version="1.0" encoding="utf-8"?>
<!-- Generator: Adobe Illustrator 20.1.0, SVG Export Plug-In . SVG Version: 6.00 Build 0)  -->
<svg version="1.1" id="Layer_1" xmlns="http://www.w3.org/2000/svg" xmlns:xlink="http://www.w3.org/1999/xlink" x="0px" y="0px"
	 viewBox="0 0 81 37.8" style="enable-background:new 0 0 81 37.8;" xml:space="preserve">
<style type="text/css">
	.st0{fill:#231F20;}
	.st1{fill:#E31B23;}
	.st2{fill:#E21F26;}
</style>
<title>Axway Logo</title>
<desc>Created with Sketch.</desc>
<g id="type">
	<path class="st0" d="M1.3,16c0.1-0.3,0.1-0.7,0.2-1.2c0.6-0.2,1.3-0.3,1.9-0.4c0.5-0.1,1.1-0.1,1.6-0.1c0.5,0,1,0,1.6,0.2
		c0.4,0.1,0.8,0.2,1.2,0.5c0.3,0.2,0.5,0.5,0.6,0.8c0.1,0.3,0.2,0.6,0.2,1c0,0.4,0,1.1-0.1,2.1c-0.1,1-0.1,1.9-0.1,2.8
		c0,0.9,0,1.6,0,2.3c-0.3,0-0.6,0-0.8,0c-0.2,0-0.5,0-0.8,0l0.2-2.5l0.1-3c-0.2,0.2-0.4,0.3-0.5,0.4c-0.1,0.1-0.2,0.1-0.4,0.2
		C5.9,19,5.8,19,5.6,19.1c-0.2,0.1-0.5,0.1-0.9,0.3s-0.8,0.2-1,0.3c-0.3,0.1-0.7,0.2-1,0.4c-0.2,0.1-0.4,0.3-0.6,0.4
		c-0.1,0.1-0.3,0.3-0.4,0.5c-0.1,0.2-0.1,0.4-0.1,0.6c0,0.3,0.1,0.6,0.3,0.8c0.2,0.2,0.4,0.4,0.7,0.5c0.3,0.1,0.7,0.2,1.1,0.1
		c0.3,0,0.5,0,0.8-0.1c0.4-0.1,0.8-0.2,1.1-0.3c-0.1,0.4-0.2,0.7-0.3,1.1C4.9,23.9,4.6,24,4.2,24c-0.3,0-0.5,0-0.8,0
		c-0.7,0-1.3-0.1-2-0.3c-0.4-0.2-0.8-0.5-1.1-0.9C0.2,22.4,0,22,0,21.5c0-0.3,0.1-0.5,0.1-0.7c0.1-0.2,0.2-0.4,0.3-0.6
		c0.2-0.2,0.4-0.4,0.6-0.6c0.3-0.2,0.5-0.3,0.8-0.5c0.3-0.1,0.6-0.2,1-0.4s1-0.3,1.8-0.5c0.2,0,0.4-0.1,0.7-0.2
		C5.7,18,5.8,17.9,6,17.9c0.1-0.1,0.3-0.1,0.4-0.2c0.1-0.1,0.2-0.2,0.3-0.3c0.1-0.1,0.2-0.2,0.2-0.4c0-0.1,0.1-0.2,0.1-0.4
		c0-0.3-0.1-0.6-0.3-0.8c-0.2-0.2-0.5-0.4-0.8-0.5c-0.4-0.1-0.7-0.1-1.1-0.1c-0.4,0-0.8,0-1.2,0.1c-0.4,0.1-0.7,0.1-1.1,0.2
		C2.1,15.7,1.7,15.8,1.3,16z"/>
	<path class="st1" d="M9.4,23.9l2.5-3.3l1.2-1.7l-2.8-4.3h1c0.3,0,0.6,0,0.9,0c0.3,0.7,1,1.8,2,3.4c1.2-1.7,2-2.8,2.3-3.4h0.9h0.9
		l-1.6,2.1c-0.1,0.2-0.7,0.9-1.6,2.2c0.7,1.1,1.3,2.1,1.8,2.8l1.5,2.3c-0.4,0-0.7,0-0.9,0s-0.6,0-1,0c-0.3-0.6-0.7-1.3-1.2-2.1
		l-1.2-2L13,21.4c-0.6,0.9-1.2,1.7-1.7,2.5c-0.4,0-0.7,0-0.9,0C10.2,23.8,9.8,23.8,9.4,23.9z"/>
	<path class="st0" d="M22.3,23.9l-0.4-1.3l-2.9-8h0.8h0.8l0.8,2.5l1.9,5.4l2.9-7.9H27h0.8l2.1,7.9l2.6-6.1l0.7-1.8H34h0.8l-3.1,6.9
		l-1,2.4c-0.3,0-0.6,0-0.9,0c-0.3,0-0.6,0-0.9,0l-1.7-6.5c-0.1-0.4-0.2-0.8-0.4-1.3l-0.2,0.5c-0.1,0.1-0.2,0.5-0.4,1l-1.9,5.3
		c-0.1,0.3-0.2,0.6-0.3,0.9c-0.3,0-0.6,0-0.8,0S22.6,23.8,22.3,23.9z"/>
	<path class="st0" d="M36.2,16c0.1-0.3,0.1-0.7,0.2-1.2c0.6-0.2,1.3-0.3,1.9-0.4c0.5-0.1,1.1-0.1,1.6-0.1c0.5,0,1,0,1.6,0.2
		c0.4,0.1,0.8,0.3,1.2,0.5c0.3,0.2,0.5,0.5,0.6,0.8c0.1,0.3,0.2,0.6,0.2,1c0,0.4,0,1.1-0.1,2.1s-0.1,1.9-0.1,2.8
		c0,0.9-0.1,1.6-0.1,2.3c-0.3,0-0.6,0-0.8,0c-0.2,0-0.5,0-0.8,0l0.2-2.5l0.1-3c-0.2,0.2-0.4,0.3-0.5,0.4c-0.1,0.1-0.2,0.1-0.4,0.2
		c-0.1,0.1-0.3,0.1-0.4,0.2c-0.2,0.1-0.5,0.1-0.9,0.3c-0.5,0.1-0.8,0.2-1,0.3c-0.3,0.1-0.7,0.2-1,0.4c-0.2,0.1-0.4,0.3-0.6,0.4
		c-0.1,0.1-0.3,0.3-0.4,0.5c-0.1,0.2-0.1,0.4-0.1,0.6c0,0.3,0.1,0.6,0.3,0.9c0.2,0.2,0.4,0.4,0.7,0.5c0.3,0.1,0.7,0.2,1.1,0.1
		c0.3,0,0.5,0,0.8-0.1c0.4-0.1,0.8-0.2,1.1-0.3c-0.1,0.4-0.2,0.7-0.3,1.1c-0.4,0.1-0.7,0.1-1.1,0.2c-0.3,0-0.5,0-0.8,0
		c-0.7,0-1.3-0.1-2-0.3c-0.4-0.2-0.8-0.5-1-0.9C35.1,22.4,35,22,35,21.5c0-0.3,0-0.5,0.1-0.8c0.1-0.2,0.2-0.4,0.3-0.6
		c0.2-0.2,0.4-0.4,0.6-0.6c0.3-0.2,0.5-0.3,0.8-0.5c0.3-0.1,0.6-0.2,1-0.4c0.4-0.1,1-0.3,1.8-0.5c0.2-0.1,0.5-0.1,0.7-0.2
		c0.2-0.1,0.4-0.1,0.5-0.2c0.1-0.1,0.3-0.1,0.4-0.2c0.1-0.1,0.2-0.2,0.3-0.3c0.1-0.1,0.2-0.2,0.2-0.4c0-0.1,0.1-0.2,0.1-0.4
		c0-0.3-0.1-0.6-0.3-0.8c-0.2-0.2-0.5-0.4-0.8-0.5c-0.4-0.1-0.7-0.1-1.1-0.1c-0.4,0-0.8,0-1.2,0.1c-0.4,0.1-0.7,0.1-1.1,0.2
		C37.1,15.7,36.7,15.8,36.2,16z"/>
	<path class="st0" d="M44.1,28.1c0-0.5-0.1-1-0.1-1.3c0.3,0.1,0.6,0.2,0.9,0.3c0.2,0,0.4,0.1,0.7,0.1c0.2,0,0.5,0,0.7-0.1
		c0.2-0.1,0.4-0.2,0.6-0.3c0.2-0.2,0.3-0.4,0.5-0.6c0.2-0.2,0.3-0.5,0.5-0.9c0.2-0.4,0.4-0.7,0.5-1.1l-2-5.6l-1.4-4h0.9
		c0.2,0,0.5,0,0.9,0c0.1,0.4,0.2,0.8,0.2,1c0.1,0.2,0.2,0.7,0.4,1.4l1.4,4.2c0.2,0.5,0.3,1,0.5,1.5l1-2.5l1.9-4.5
		c0.1-0.1,0.1-0.3,0.2-0.4l0.2-0.7h0.8h0.9c-0.2,0.5-0.8,1.8-1.7,3.8L49,26c-0.2,0.4-0.4,0.8-0.7,1.2c-0.2,0.2-0.3,0.4-0.5,0.5
		c-0.2,0.1-0.3,0.2-0.5,0.3c-0.2,0.1-0.5,0.2-0.7,0.3c-0.3,0.1-0.6,0.1-0.9,0.1C45.1,28.3,44.6,28.3,44.1,28.1z"/>
</g>
<g>
	<path class="st1" d="M70.1,5.6c-2.8,0-5.4,1-7.5,2.9l0,0l-0.1,0.1l0,0l-0.1-0.1c0,0,3.5-3.1,7.7-3.1l0,0c2.4,0,5,0.7,8,2.9
		c0.5,0.4,1.7,1.4,0.4,0.4C75.3,6.4,72.4,5.6,70.1,5.6L70.1,5.6L70.1,5.6z"/>
	<path class="st1" d="M61.6,7.3c3.2-3.9,7.5-5.1,11.5-5.1l0,0c3.8,0.1,7.6,1,11,2.6c0.3,0.1,0.5,0.2,0.7,0.4l-0.7-0.3
		c-0.3-0.1-0.6-0.3-0.9-0.4C82.9,4.3,82.4,4.1,82,4l0,0c-2.9-1-5.9-1.6-8.9-1.6l0,0c-4,0-8.2,1.3-11.4,5c-0.1,0.1-0.1,0.1-0.1,0.2
		l-0.1-0.2L61.6,7.3z"/>
	<path class="st1" d="M62.5,23.2c-2-1.8-4.1-4.3-4.1-7.4l0,0c0-0.5,0.1-0.9,0.1-1.4v-0.1l0.1,0.2v0.1c-0.1,0.4-0.1,0.8-0.1,1.2l0,0
		c0,4.5,4.5,7.9,6.8,9.3l0,0c0.8,0.5,1.9,1.3,1.9,1.3C65.6,25.5,64,24.5,62.5,23.2L62.5,23.2L62.5,23.2z"/>
	<path class="st1" d="M58.4,15.3c0-0.4,0-0.8,0.1-1.1v0l0.2,0.2v0.1c0,0.3,0,0.6,0,0.9l0,0c0,3.5,1.6,7.9,7,13l0.8,0.8
		C60,23.7,58.4,18.9,58.4,15.3L58.4,15.3z"/>
	<path class="st1" d="M62.5,23.2c-2-1.8-4.1-4.3-4.1-7.4l0,0c0-1.7,0.7-3.7,2.3-5.8l0.1-0.1l0,0l0.1,0.1c-1.7,2.1-2.3,4-2.3,5.8l0,0
		c0,4.5,4.5,7.9,6.8,9.3l0,0c0.8,0.5,1.9,1.3,1.9,1.3C65.6,25.5,64,24.5,62.5,23.2L62.5,23.2L62.5,23.2z"/>
	<path class="st1" d="M62.3,8.6l0.1-0.1c3.6,3.4,7,4,9,4l0,0c0.6,0,1.2-0.1,1.9-0.2l0,0l0.1,0l0,0l-0.1,0.1
		c-0.6,0.2-1.3,0.3-1.9,0.3l0,0C69.4,12.6,65.9,11.9,62.3,8.6L62.3,8.6z"/>
	<path class="st1" d="M70.1,5.6c-2.8,0-5.4,1-7.5,2.9l0,0l-0.1,0.1l0,0l-0.1-0.1c0,0,3.5-3.1,7.7-3.1l0,0c2.4,0,5,0.7,8,2.9
		c0.5,0.4,1.7,1.4,0.4,0.4C75.3,6.4,72.4,5.6,70.1,5.6L70.1,5.6L70.1,5.6z"/>
	<path class="st1" d="M59.9,2.9c0-0.3,0-0.6,0.1-0.9c0,0,0-0.1,0.1-0.1c0,0,0.1-0.1,0.1-0.1c0,0,0,0.2-0.1,0.3l0,0
		c0,0.2-0.1,0.5-0.1,0.7l0,0c0.1,1.7,0.6,3.2,1.6,4.6l0,0l-0.1,0.1C60.5,6.2,60,4.6,59.9,2.9L59.9,2.9L59.9,2.9z"/>
	<path class="st1" d="M71,2.4c-1.6-1.5-3.6-2.3-5.8-2.2c-1.8,0-3.6,0.6-5.1,1.6c-0.5,1.6,0.4,4,1.5,5.6c0.5-0.5,1.1-1.1,1.6-1.6
		C65.2,3.8,68,2.6,71,2.4L71,2.4z"/>
	<path class="st1" d="M60.1,9.4c-1.2-1.1-2.2-2.6-2.7-4.2c-0.6,1.1-0.9,2.4-1,3.7c0,2.1,0.7,4.1,2.1,5.7C58.6,12.8,59.1,11,60.1,9.4
		L60.1,9.4L60.1,9.4z"/>
	<path class="st1" d="M58.6,14.7c1.6,1.9,4,3.1,6.6,3.1c3.6,0,6.8-2.2,8.2-5.5c-4,1.4-7,0.3-9.9-0.8c-0.9-0.4-1.8-0.9-2.6-1.5
		C59.7,11.4,58.9,13,58.6,14.7L58.6,14.7z"/>
	<path class="st1" d="M73.3,12.3c-3.3,0.6-6.6-0.3-10.1-3c-0.3-0.2-0.5-0.4-0.8-0.7c0.7-0.7,1.6-1.3,2.5-1.7c4-2.1,8.5-1.2,8.7-0.6
		C73.8,7.1,74,8,74,9c0,1.1-0.2,2.2-0.6,3.3"/>
	<path class="st2" d="M61.6,7.3c3.2-3.9,7.5-5.1,11.5-5.1l0,0c3.8,0.1,7.6,1,11,2.6c0.3,0.1,0.5,0.2,0.7,0.4l-0.7-0.3
		c-0.3-0.1-0.6-0.3-0.9-0.4C82.9,4.3,82.4,4.1,82,4l0,0c-2.9-1-5.9-1.6-8.9-1.6l0,0c-4,0-8.2,1.3-11.4,5c-0.1,0.1-0.1,0.1-0.1,0.2
		l-0.1-0.2L61.6,7.3z"/>
	<path class="st1" d="M57.4,5.2L57.4,5.2c0,0,0.2,0.1,0.2,0.4l0,0c0.1,0.3,0.3,0.6,0.5,1l0,0c0.5,1,1.2,1.9,2,2.7
		c0,0,0.1,0.1,0.1,0.1l-0.1,0.1C58.9,8.4,58,7,57.3,5.4L57.4,5.2z"/>
	<path class="st1" d="M60.8,10.1l0.1-0.2c0,0,0.3,0.2,0.7,0.5l0,0c0.6,0.4,1.2,0.7,1.9,1l0,0c1.9,0.9,4,1.4,6.2,1.5l0,0
		c1.3,0,2.6-0.2,3.8-0.7v0.1l-0.1,0c-1.2,0.5-2.5,0.7-3.7,0.7l0,0C64.8,13.1,60.8,10.1,60.8,10.1L60.8,10.1L60.8,10.1z"/>
	<path class="st1" d="M58.4,15.3c0-2.1,0.5-4.1,1.7-5.9l0,0l0.1,0.1c0,0-0.1,0.1-0.3,0.4l0,0c-0.2,0.4-0.4,0.8-0.6,1.2l0,0
		c-0.6,1.3-0.8,2.8-0.8,4.2l0,0c0,3.5,1.6,7.9,7,13l0.8,0.8C60,23.7,58.4,18.9,58.4,15.3L58.4,15.3z"/>
</g>
</svg>
