<?xml version="1.0" encoding="UTF-8" standalone="no"?>
<svg width="81px" height="29px" viewBox="0 0 81 29" version="1.1" xmlns="http://www.w3.org/2000/svg" xmlns:xlink="http://www.w3.org/1999/xlink">
    <!-- Generator: Sketch 40.1 (33804) - http://www.bohemiancoding.com/sketch -->
    <title>Axway Logo</title>
    <desc>Created with Sketch.</desc>
    <defs>
        <polygon id="path-1" points="24.5890687 0.66265 0.00990803571 0.66265 0.00990803571 14.662255 24.5890687 14.662255 24.5890687 0.66265"></polygon>
    </defs>
    <g id="Page-1" stroke="none" stroke-width="1" fill="none" fill-rule="evenodd">
        <g id="Home" transform="translate(-380.000000, -13.000000)">
            <g id="Nav">
                <g id="Axway-Logo" transform="translate(380.000000, 13.000000)">
                    <path d="M2.96517857,18.692095 L5.40602679,18.328145 C5.97085714,18.246945 6.15238393,17.96347 6.15238393,17.620545 C6.15238393,16.91222 5.60780357,16.325695 4.47814286,16.325695 C3.30870536,16.325695 2.662875,17.073895 2.581875,17.94317 L0.201053571,17.437845 C0.363053571,15.88127 1.79501786,14.162295 4.45789286,14.162295 C7.60532143,14.162295 8.77548214,15.941445 8.77548214,17.94317 L8.77548214,22.837645 C8.77548214,23.362545 8.83550893,24.071595 8.89625893,24.41452 L6.43516071,24.41452 C6.37441071,24.15207 6.33391071,23.606145 6.33391071,23.22117 C5.82983036,24.010695 4.88169643,24.69727 3.40923214,24.69727 C1.2909375,24.69727 0,23.26177 0,21.70447 C0,19.92532 1.3111875,18.934245 2.96517857,18.692095 M6.15238393,20.390045 L6.15238393,19.94562 L3.9133125,20.28927 C3.22770536,20.390045 2.68240179,20.774295 2.68240179,21.542795 C2.68240179,22.130045 3.10692857,22.69627 3.9740625,22.69627 C5.10372321,22.69627 6.15238393,22.14962 6.15238393,20.390045" id="Fill-1" fill="#11171E"></path>
                    <path d="M12.7077429,19.4196325 L9.17701071,14.4657075 L12.3649393,14.4657075 C12.7077429,15.0109075 13.9986804,16.8712575 14.3414839,17.4179075 L16.2985018,14.4657075 L19.3446804,14.4657075 L15.8746982,19.3391575 L19.4654571,24.4148825 L16.3187518,24.4148825 L14.2409571,21.3611825 C13.8779036,21.9071075 12.5464661,23.8689575 12.2036625,24.4148825 L9.17701071,24.4148825 L12.7077429,19.4196325 Z" id="Fill-3" fill="#11171E"></path>
                    <polygon id="Fill-5" fill="#11171E" points="28.6436973 14.4654175 30.7815188 20.8751425 32.6177598 14.4654175 35.2799116 14.4654175 32.1737063 24.4145925 29.4905813 24.4145925 27.171233 17.6206175 24.8916616 24.4145925 22.1680366 24.4145925 19.0010813 14.4654175 21.825233 14.4654175 23.6607509 20.8555675 25.8188223 14.4654175"></polygon>
                    <path d="M38.0024518,18.692095 L40.4433,18.328145 C41.0081304,18.246945 41.1896571,17.96347 41.1896571,17.620545 C41.1896571,16.91222 40.6450768,16.325695 39.5154161,16.325695 C38.3452554,16.325695 37.7001482,17.073895 37.6191482,17.94317 L35.2383268,17.437845 C35.4003268,15.88127 36.8322911,14.162295 39.4951661,14.162295 C42.6425946,14.162295 43.8120321,15.941445 43.8120321,17.94317 L43.8120321,22.837645 C43.8120321,23.362545 43.8727821,24.071595 43.9335321,24.41452 L41.4724339,24.41452 C41.4116839,24.15207 41.3711839,23.606145 41.3711839,23.22117 C40.8671036,24.010695 39.9189696,24.69727 38.4465054,24.69727 C36.3282107,24.69727 35.0372732,23.26177 35.0372732,21.70447 C35.0372732,19.92532 36.3484607,18.934245 38.0024518,18.692095 M41.1896571,20.390045 L41.1896571,19.94562 L38.9505857,20.28927 C38.2649786,20.390045 37.719675,20.774295 37.719675,21.542795 C37.719675,22.130045 38.1442018,22.69627 39.0113357,22.69627 C40.1409964,22.69627 41.1896571,22.14962 41.1896571,20.390045" id="Fill-7" fill="#11171E"></path>
                    <polygon id="Fill-9" fill="#11171E" points="45.4854777 28.337495 47.8257991 23.16027 43.6094598 14.465345 46.6151384 14.465345 49.2577634 20.28927 51.6986116 14.465345 54.5632634 14.465345 48.3298795 28.337495"></polygon>
                    <g id="Group-13" stroke-width="1" transform="translate(56.410714, 0.062495)">
                        <mask id="mask-2" fill="white">
                            <use xlink:href="#path-1"></use>
                        </mask>
                        <g id="Clip-12"></g>
                        <polygon id="Fill-11" fill="#D9272D" mask="url(#mask-2)" points="24.5890687 10.69868 24.5890687 7.31438 19.4824527 4.87838 19.4824527 9.957005 0.00990803571 0.662505 0.00990803571 4.04463 22.2639348 14.662255 22.2581491 9.58653"></polygon>
                    </g>
                    <polygon id="Fill-14" fill="#D9272D" points="61.4029179 13.245895 61.4029179 16.627295 64.9661946 18.317995 59.233275 24.40002 63.0359357 24.40002 69.8370429 17.265295"></polygon>
                    <polygon id="Fill-16" fill="#D9272D" points="78.6742152 16.408925 59.0780009 7.06585 59.0780009 10.4487 74.677733 17.885025"></polygon>
                </g>
            </g>
        </g>
    </g>
</svg>