<svg id="Layer_1" data-name="Layer 1" xmlns="http://www.w3.org/2000/svg" viewBox="0 0 181.36 51.66"><defs><style>.cls-1{fill:#231f20;}.cls-2{fill:#e31b23;}.cls-3{fill:#e21f26;}</style></defs><title>logo</title><g id="type"><path class="cls-1" d="M48.75,18.8q0.2-1,.43-3a42.14,42.14,0,0,1,4.84-1,32.05,32.05,0,0,1,4-.26,19,19,0,0,1,3.92.38,8,8,0,0,1,3,1.24,4.15,4.15,0,0,1,1.6,2,7.11,7.11,0,0,1,.4,2.39q0,1.6-.23,5.36t-0.36,7q-0.12,3.2-.12,5.7-1.27,0-2.06,0t-2.13,0l0.47-6.33,0.34-7.48c-0.54.42-.95,0.71-1.21,0.88a6.49,6.49,0,0,1-.91.48,11.89,11.89,0,0,1-1.12.42q-0.61.2-2.38,0.69t-2.51.74a14.65,14.65,0,0,0-2.52,1,7.32,7.32,0,0,0-1.55,1.11,3.72,3.72,0,0,0-.88,1.21,4.06,4.06,0,0,0-.3,1.55A3.42,3.42,0,0,0,50.21,35a3.79,3.79,0,0,0,1.85,1.29,8.78,8.78,0,0,0,2.68.36,15.33,15.33,0,0,0,2-.14,16.52,16.52,0,0,0,2.83-.73,25.39,25.39,0,0,0-.72,2.75,25.7,25.7,0,0,1-2.75.42q-1.07.08-2,.08a13.21,13.21,0,0,1-4.94-.74A5.3,5.3,0,0,1,46.52,36a6.47,6.47,0,0,1-.88-3.3A5.74,5.74,0,0,1,46,30.82a6.15,6.15,0,0,1,.85-1.6,7,7,0,0,1,1.52-1.44,10.51,10.51,0,0,1,2.06-1.18q1.08-.46,2.52-0.92t4.61-1.22A17.15,17.15,0,0,0,59.24,24q0.72-.24,1.27-0.48a4.26,4.26,0,0,0,1-.55,3.93,3.93,0,0,0,.77-0.77,3.34,3.34,0,0,0,.51-0.91,2.82,2.82,0,0,0,.16-0.93,2.75,2.75,0,0,0-.74-1.93,4,4,0,0,0-1.94-1.13A10.85,10.85,0,0,0,57.44,17a20.25,20.25,0,0,0-3.09.24,20.88,20.88,0,0,0-2.73.57Q50.46,18.14,48.75,18.8Z"/><path class="cls-2" d="M69.17,38.54l6.21-8.31L78.5,26,71.55,15.11l2.5,0c0.72,0,1.47,0,2.26,0q1.27,2.46,5,8.49,4.49-6.36,5.84-8.49l2.25,0,2.3,0-3.93,5.2q-0.56.72-4.1,5.55,2.66,4.32,4.43,7l3.67,5.67c-0.93,0-1.71,0-2.32,0s-1.53,0-2.43,0q-1.19-2.31-3-5.22l-3.09-5-2.84,4q-2.42,3.42-4.23,6.22-1.38,0-2.24,0T69.17,38.54Z"/><path class="cls-1" d="M101.44,38.54l-1.09-3.35-7.2-20.08,2.08,0,1.91,0,2,6.22L103.89,35l7.28-19.84,2.16,0,2.11,0L120.81,35l6.44-15.36L129,15.11l1.94,0,2,0-7.77,17.44-2.54,6q-1.16,0-2.15,0t-2.35,0l-4.29-16.24c-0.28-1.07-.58-2.12-0.89-3.17l-0.47,1.2q-0.21.51-.95,2.57l-4.89,13.32q-0.35.95-.81,2.31c-0.79,0-1.49,0-2.13,0S102.31,38.51,101.44,38.54Z"/><path class="cls-1" d="M136.43,18.8q0.2-1,.43-3a42.1,42.1,0,0,1,4.84-1,32,32,0,0,1,4-.26,19,19,0,0,1,3.91.38,8.07,8.07,0,0,1,3,1.24,4.17,4.17,0,0,1,1.6,2,7.06,7.06,0,0,1,.4,2.39q0,1.6-.24,5.36t-0.36,7q-0.13,3.2-.13,5.7c-0.84,0-1.53,0-2.06,0s-1.21,0-2.13,0l0.47-6.33,0.34-7.48q-0.81.63-1.21,0.88a6.45,6.45,0,0,1-.91.48c-0.34.15-.71,0.29-1.12,0.42s-1.2.36-2.38,0.69-2,.57-2.51.74a14.61,14.61,0,0,0-2.52,1,7.38,7.38,0,0,0-1.55,1.11,3.71,3.71,0,0,0-.88,1.21,4.1,4.1,0,0,0-.3,1.55,3.41,3.41,0,0,0,.74,2.18,3.78,3.78,0,0,0,1.85,1.29,8.75,8.75,0,0,0,2.68.36,15.34,15.34,0,0,0,2-.14,16.59,16.59,0,0,0,2.83-.73,24.42,24.42,0,0,0-.73,2.75,25.54,25.54,0,0,1-2.75.42c-0.71.06-1.38,0.08-2,.08a13.21,13.21,0,0,1-4.94-.74A5.3,5.3,0,0,1,134.2,36a6.46,6.46,0,0,1-.88-3.3,5.73,5.73,0,0,1,.31-1.92,6.09,6.09,0,0,1,.84-1.6A7,7,0,0,1,136,27.79a10.49,10.49,0,0,1,2.06-1.18q1.08-.46,2.52-0.92t4.61-1.22a17.07,17.07,0,0,0,1.74-.47c0.48-.16.91-0.32,1.28-0.48a4.31,4.31,0,0,0,1-.55,3.88,3.88,0,0,0,.76-0.77,3.34,3.34,0,0,0,.51-0.91,2.82,2.82,0,0,0,.16-0.93,2.75,2.75,0,0,0-.74-1.93,4,4,0,0,0-1.93-1.13,10.84,10.84,0,0,0-2.81-.32,20.24,20.24,0,0,0-3.09.24,20.63,20.63,0,0,0-2.73.57Q138.14,18.14,136.43,18.8Z"/><path class="cls-1" d="M156.2,49.25q-0.15-2-.36-3.33a9.27,9.27,0,0,0,2.16.75,9.17,9.17,0,0,0,1.7.19,5,5,0,0,0,1.76-.32,3.88,3.88,0,0,0,1.39-.85A8.41,8.41,0,0,0,164,44.22c0.39-.62.81-1.35,1.25-2.19a28.54,28.54,0,0,0,1.26-2.82l-4.94-14-3.61-10,2.3,0q0.67,0,2.15,0,0.37,1.62.62,2.47t1.09,3.49l3.44,10.6q0.57,1.81,1.14,3.88l2.62-6.37,4.84-11.3c0.14-.34.28-0.69,0.41-1.05l0.61-1.72,2.06,0,2.15,0q-0.91,2.06-4.38,9.59l-8.59,19.06a17.93,17.93,0,0,1-1.65,2.91,8.45,8.45,0,0,1-1.3,1.36,6,6,0,0,1-1.25.83,8.79,8.79,0,0,1-1.86.65,10.86,10.86,0,0,1-2.23.23A16.82,16.82,0,0,1,156.2,49.25Z"/></g><path class="cls-2" d="M24.39,9.68A20.31,20.31,0,0,0,11,14.85h0l-0.24.23h0l-0.21-.19s6.31-5.5,13.81-5.51h0c4.21,0,9,1.3,14.36,5.25,0.93,0.76,3.08,2.46.66,0.66-5.67-4.22-10.76-5.61-15-5.61h0Z"/><path class="cls-2" d="M9.2,12.66c5.72-6.95,13.35-9.11,20.61-9.11h0a48.55,48.55,0,0,1,19.69,4.6,5.36,5.36,0,0,1,1.33.66l-1.26-.55c-0.51-.22-1.08-0.45-1.69-0.69S46.5,7.06,45.74,6.8h0A49.93,49.93,0,0,0,29.81,3.86h0c-7.17,0-14.74,2.25-20.38,9C9.34,13,9.33,13,9.24,13.13l-0.18-.28Z"/><path class="cls-2" d="M10.89,41.21C7.24,38.07,3.57,33.53,3.57,28h0a12.62,12.62,0,0,1,.26-2.51l0-.2,0.24,0.32,0,0.19a12.55,12.55,0,0,0-.2,2.2h0c0,8.13,8.12,14.14,12.2,16.62h0c1.36,0.83,3.38,2.28,3.38,2.28a50.31,50.31,0,0,1-8.56-5.65h0Z"/><path class="cls-2" d="M3.51,27c0-.69,0-1.35.1-2V24.92L3.9,25.23l0,0.22c0,0.51-.06,1-0.06,1.59h0c0,6.26,2.93,14.13,12.58,23.16l1.46,1.46C6.42,42.11,3.51,33.4,3.51,27h0Z"/><path class="cls-2" d="M10.89,41.21C7.24,38.07,3.57,33.53,3.57,28h0c0-3.12,1.23-6.66,4.18-10.32l0.12-.15,0,0,0.2,0.18C5.05,21.41,3.87,24.85,3.87,28h0c0,8.13,8.12,14.14,12.2,16.62h0c1.36,0.83,3.38,2.28,3.38,2.28a50.31,50.31,0,0,1-8.56-5.65h0Z"/><path class="cls-2" d="M10.47,15l0.23-.21c6.5,6,12.51,7.09,16.15,7.09h0a14.09,14.09,0,0,0,3.32-.36h0l0.24-.06h0l-0.14.22a9.2,9.2,0,0,1-3.42.51h0C23.15,22.15,17,21,10.47,15h0Z"/><path class="cls-2" d="M24.39,9.68A20.31,20.31,0,0,0,11,14.85h0l-0.24.23h0l-0.21-.19s6.31-5.5,13.81-5.51h0c4.21,0,9,1.3,14.36,5.25,0.93,0.76,3.08,2.46.66,0.66-5.67-4.22-10.76-5.61-15-5.61h0Z"/><path class="cls-2" d="M6.16,4.77a4,4,0,0,1,.2-1.65A0.32,0.32,0,0,1,6.47,3a1.66,1.66,0,0,1,.24-0.15c0,0.06-.08.32-0.14,0.62h0a7.56,7.56,0,0,0-.11,1.32h0a14.84,14.84,0,0,0,2.9,8.18l0,0-0.19.24a15.55,15.55,0,0,1-3-8.44h0Z"/><path class="cls-2" d="M26,3.95A14.36,14.36,0,0,0,15.65,0,15.56,15.56,0,0,0,6.54,2.95c-0.82,2.93.65,7.11,2.61,10C10,12,11.08,10.91,12,10A21.71,21.71,0,0,1,26,4Z"/><path class="cls-2" d="M6.6,16.43A17.86,17.86,0,0,1,1.73,9,15.05,15.05,0,0,0,0,15.65a15.57,15.57,0,0,0,3.79,10.2,19.37,19.37,0,0,1,2.8-9.42h0Z"/><path class="cls-2" d="M3.91,26A15.82,15.82,0,0,0,15.63,31.6a16.09,16.09,0,0,0,14.68-9.91c-7.19,2.57-12.48.56-17.71-1.45A18.54,18.54,0,0,1,8,17.61,17.5,17.5,0,0,0,3.91,26h0Z"/><path class="cls-2" d="M30.17,21.64c-5.84,1.08-11.77-.54-18.11-5.42A10,10,0,0,1,10.67,15a20.05,20.05,0,0,1,4.41-3.11c7.2-3.76,15.16-2.11,15.49-1.15a18.74,18.74,0,0,1,.85,5,16.44,16.44,0,0,1-1.07,5.88"/><path class="cls-3" d="M9.2,12.66c5.72-6.95,13.35-9.11,20.61-9.11h0a48.55,48.55,0,0,1,19.69,4.6,5.36,5.36,0,0,1,1.33.66l-1.26-.55c-0.51-.22-1.08-0.45-1.69-0.69S46.5,7.06,45.74,6.8h0A49.93,49.93,0,0,0,29.81,3.86h0c-7.17,0-14.74,2.25-20.38,9C9.34,13,9.33,13,9.24,13.13l-0.18-.28Z"/><path class="cls-2" d="M1.73,9L1.8,8.93S2,9.26,2.17,9.72h0c0.2,0.46.49,1.1,0.9,1.85h0a19.65,19.65,0,0,0,3.6,4.77,3.1,3.1,0,0,1,.21.24l-0.21.23A21.09,21.09,0,0,1,1.61,9.32Z"/><path class="cls-2" d="M7.78,17.67l0.16-.27s0.46,0.36,1.25.86h0a31.55,31.55,0,0,0,3.35,1.84h0a26.19,26.19,0,0,0,11,2.67h0a19.24,19.24,0,0,0,6.83-1.21l0,0.14-0.1.06a18.38,18.38,0,0,1-6.68,1.33h0c-8.65,0-15.74-5.39-15.75-5.4h0Z"/><path class="cls-2" d="M3.51,27a18.73,18.73,0,0,1,3-10.54h0l0.25,0.19s-0.18.24-.46,0.71h0a16.5,16.5,0,0,0-1,2.06h0A19.78,19.78,0,0,0,3.82,27h0c0,6.26,2.93,14.13,12.58,23.16l1.46,1.46C6.42,42.11,3.51,33.4,3.51,27h0Z"/></svg>