<?xml version="1.0" encoding="UTF-8" standalone="no"?>
<svg width="21px" height="20px" viewBox="0 0 21 20" version="1.1" xmlns="http://www.w3.org/2000/svg" xmlns:xlink="http://www.w3.org/1999/xlink">
    <!-- Generator: Sketch 40.1 (33804) - http://www.bohemiancoding.com/sketch -->
    <title>googleplus</title>
    <desc>Created with Sketch.</desc>
    <defs>
        <polygon id="path-1" points="10.434751 6.64025296 10.434751 0 1.01807013e-15 0 0 6.64025296"></polygon>
    </defs>
    <g id="Page-1" stroke="none" stroke-width="1" fill="none" fill-rule="evenodd">
        <g id="Home" transform="translate(-1491.000000, -2776.000000)">
            <g id="Footer" transform="translate(380.000000, 2588.000000)">
                <g id="Social" transform="translate(997.000000, 188.000000)">
                    <g id="googleplus" transform="translate(114.000000, 0.000000)">
                        <ellipse id="Oval-3" fill="#AAAAAA" cx="10.3478261" cy="10" rx="10" ry="10"></ellipse>
                        <g id="Google-+" transform="translate(5.130435, 6.956522)">
                            <mask id="mask-2" fill="white">
                                <use xlink:href="#path-1"></use>
                            </mask>
                            <g id="Clip-2"></g>
                            <path d="M3.3141502,2.6627668 L3.3141502,3.97770751 C3.3141502,3.97770751 4.58750988,3.97596838 5.10592885,3.97596838 C4.82513834,4.8284585 4.3886166,5.29264822 3.3141502,5.29264822 C2.22687747,5.29264822 1.37818182,4.40948617 1.37818182,3.3201581 C1.37818182,2.23098814 2.22687747,1.34782609 3.3141502,1.34782609 C3.88901186,1.34782609 4.26039526,1.55035573 4.60094862,1.83241107 C4.87351779,1.55936759 4.85075099,1.52047431 5.54434783,0.864189723 C4.95557312,0.327272727 4.17296443,0 3.3141502,0 C1.48379447,0 0,1.48648221 0,3.3201581 C0,5.15383399 1.48379447,6.64031621 3.3141502,6.64031621 C6.05011858,6.64031621 6.71873518,4.25375494 6.4970751,2.6627668 L3.3141502,2.6627668 Z M9.28632411,2.72853755 L9.28632411,1.57802372 L8.46592885,1.57802372 L8.46592885,2.72853755 L7.28458498,2.72853755 L7.28458498,3.55035573 L8.46592885,3.55035573 L8.46592885,4.73375494 L9.28632411,4.73375494 L9.28632411,3.55035573 L10.4347826,3.55035573 L10.4347826,2.72853755 L9.28632411,2.72853755 Z" id="Fill-1" fill="#FFFFFF" mask="url(#mask-2)"></path>
                        </g>
                    </g>
                </g>
            </g>
        </g>
    </g>
</svg>