<?xml version="1.0" encoding="UTF-8" standalone="no"?>
<svg width="21px" height="20px" viewBox="0 0 21 20" version="1.1" xmlns="http://www.w3.org/2000/svg" xmlns:xlink="http://www.w3.org/1999/xlink">
    <!-- Generator: Sketch 40.1 (33804) - http://www.bohemiancoding.com/sketch -->
    <title>instagram</title>
    <desc>Created with Sketch.</desc>
    <defs>
        <polygon id="path-1" points="10.4347174 10.4347391 10.4347174 0 3.8616453e-16 0 0 10.4347391"></polygon>
    </defs>
    <g id="Page-1" stroke="none" stroke-width="1" fill="none" fill-rule="evenodd">
        <g id="Home" transform="translate(-1520.000000, -2776.000000)">
            <g id="Footer" transform="translate(380.000000, 2588.000000)">
                <g id="Social" transform="translate(997.000000, 188.000000)">
                    <g id="instagram" transform="translate(143.000000, 0.000000)">
                        <circle id="Oval-3" fill="#AAAAAA" cx="10.0434783" cy="10" r="10"></circle>
                        <g id="Instagram" transform="translate(4.826087, 4.782609)">
                            <mask id="mask-2" fill="white">
                                <use xlink:href="#path-1"></use>
                            </mask>
                            <g id="Clip-2"></g>
                            <path d="M8.62847826,2.4323913 C8.62847826,2.77826087 8.34826087,3.05847826 8.0023913,3.05847826 C7.65652174,3.05847826 7.37630435,2.77826087 7.37630435,2.4323913 C7.37630435,2.08652174 7.65652174,1.80630435 8.0023913,1.80630435 C8.34826087,1.80630435 8.62847826,2.08652174 8.62847826,2.4323913 M5.2173913,6.95652174 C4.25673913,6.95652174 3.47826087,6.17804348 3.47826087,5.2173913 C3.47826087,4.25695652 4.25673913,3.47826087 5.2173913,3.47826087 C6.17782609,3.47826087 6.95652174,4.25695652 6.95652174,5.2173913 C6.95652174,6.17804348 6.17782609,6.95652174 5.2173913,6.95652174 M5.2173913,2.53826087 C3.7376087,2.53826087 2.53804348,3.73782609 2.53804348,5.2173913 C2.53804348,6.69717391 3.7376087,7.89673913 5.2173913,7.89673913 C6.69695652,7.89673913 7.89652174,6.69717391 7.89652174,5.2173913 C7.89652174,3.73782609 6.69695652,2.53826087 5.2173913,2.53826087 M5.2173913,0.940217391 C6.61043478,0.940217391 6.77543478,0.945434783 7.32565217,0.970434783 C7.83434783,0.993695652 8.11065217,1.07869565 8.29434783,1.15021739 C8.53782609,1.24478261 8.71173913,1.35782609 8.89434783,1.54043478 C9.07695652,1.72304348 9.19,1.89673913 9.28456522,2.14043478 C9.35608696,2.32413043 9.44108696,2.60043478 9.46413043,3.10913043 C9.48934783,3.65934783 9.49456522,3.82434783 9.49456522,5.2173913 C9.49456522,6.61043478 9.48934783,6.77565217 9.46413043,7.32565217 C9.44108696,7.83434783 9.35608696,8.11065217 9.28456522,8.29456522 C9.19,8.53804348 9.07695652,8.71173913 8.89434783,8.89434783 C8.71173913,9.07695652 8.53782609,9.19 8.29434783,9.28478261 C8.11065217,9.35608696 7.83434783,9.44108696 7.32565217,9.46434783 C6.77543478,9.48934783 6.61043478,9.49478261 5.2173913,9.49478261 C3.82413043,9.49478261 3.65913043,9.48934783 3.10913043,9.46434783 C2.60043478,9.44108696 2.32413043,9.35608696 2.14021739,9.28478261 C1.89673913,9.19 1.72282609,9.07695652 1.54043478,8.89434783 C1.35782609,8.71173913 1.24478261,8.53804348 1.15,8.29456522 C1.07869565,8.11065217 0.993695652,7.83434783 0.970434783,7.32565217 C0.945434783,6.77565217 0.94,6.61043478 0.94,5.2173913 C0.94,3.82434783 0.945434783,3.65934783 0.970434783,3.10913043 C0.993695652,2.60043478 1.07869565,2.32413043 1.15,2.14043478 C1.24478261,1.89673913 1.35782609,1.72304348 1.54043478,1.54043478 C1.72282609,1.35782609 1.89673913,1.24478261 2.14021739,1.15021739 C2.32413043,1.07869565 2.60043478,0.993695652 3.10913043,0.970434783 C3.65913043,0.945434783 3.82413043,0.940217391 5.2173913,0.940217391 M5.2173913,0 C3.80043478,0 3.6226087,0.00608695652 3.06630435,0.0315217391 C2.51086957,0.0567391304 2.13152174,0.145 1.79978261,0.273913043 C1.45673913,0.407173913 1.16565217,0.585652174 0.875652174,0.875652174 C0.585652174,1.16586957 0.407173913,1.45673913 0.273913043,1.79978261 C0.144782609,2.13173913 0.0567391304,2.51108696 0.0313043478,3.06630435 C0.00586956522,3.62282609 0,3.80043478 0,5.2173913 C0,6.63434783 0.00586956522,6.81217391 0.0313043478,7.36847826 C0.0567391304,7.92391304 0.144782609,8.30326087 0.273913043,8.635 C0.407173913,8.97804348 0.585652174,9.26913043 0.875652174,9.55913043 C1.16565217,9.84913043 1.45673913,10.0276087 1.79978261,10.1608696 C2.13152174,10.29 2.51086957,10.3780435 3.06630435,10.4034783 C3.6226087,10.428913 3.80043478,10.4347826 5.2173913,10.4347826 C6.63434783,10.4347826 6.81195652,10.428913 7.36847826,10.4034783 C7.92369565,10.3780435 8.30304348,10.29 8.635,10.1608696 C8.97804348,10.0276087 9.26891304,9.84913043 9.55913043,9.55913043 C9.84913043,9.26913043 10.0273913,8.97804348 10.1608696,8.635 C10.2897826,8.30326087 10.3780435,7.92391304 10.4032609,7.36847826 C10.4286957,6.81217391 10.4347826,6.63434783 10.4347826,5.2173913 C10.4347826,3.80043478 10.4286957,3.62282609 10.4032609,3.06630435 C10.3780435,2.51108696 10.2897826,2.13173913 10.1608696,1.79978261 C10.0273913,1.45673913 9.84913043,1.16586957 9.55913043,0.875652174 C9.26891304,0.585652174 8.97804348,0.407173913 8.635,0.273913043 C8.30304348,0.145 7.92369565,0.0567391304 7.36847826,0.0315217391 C6.81195652,0.00608695652 6.63434783,0 5.2173913,0" id="Fill-1" fill="#FFFFFF" mask="url(#mask-2)"></path>
                        </g>
                    </g>
                </g>
            </g>
        </g>
    </g>
</svg>