<?xml version="1.0" encoding="UTF-8" standalone="no"?>
<svg width="20px" height="20px" viewBox="0 0 20 20" version="1.1" xmlns="http://www.w3.org/2000/svg" xmlns:xlink="http://www.w3.org/1999/xlink">
    <!-- Generator: Sketch 40.1 (33804) - http://www.bohemiancoding.com/sketch -->
    <title>linkedin</title>
    <desc>Created with Sketch.</desc>
    <defs></defs>
    <g id="Page-1" stroke="none" stroke-width="1" fill="none" fill-rule="evenodd">
        <g id="Home" transform="translate(-1377.000000, -2776.000000)">
            <g id="Footer" transform="translate(380.000000, 2588.000000)">
                <g id="Social" transform="translate(997.000000, 188.000000)">
                    <g id="linkedin">
                        <circle id="Oval-3" fill="#AAAAAA" cx="10" cy="10" r="10"></circle>
                        <path d="M5.0458498,14.7035573 L7.07968379,14.7035573 L7.07968379,8.25936759 L5.0458498,8.25936759 L5.0458498,14.7035573 Z M6.01083004,7.45328063 L5.99612648,7.45328063 C5.26,7.45328063 4.7826087,6.96071146 4.7826087,6.33628458 C4.7826087,5.69976285 5.27399209,5.2173913 6.02505929,5.2173913 C6.77541502,5.2173913 7.23667984,5.69857708 7.2513834,6.33438735 C7.2513834,6.95881423 6.77541502,7.45328063 6.01083004,7.45328063 L6.01083004,7.45328063 Z M15.2173913,14.7035573 L12.9110672,14.7035573 L12.9110672,11.3686957 C12.9110672,10.4959684 12.5503557,9.9 11.7570751,9.9 C11.1504348,9.9 10.8129644,10.3022134 10.6559684,10.6897233 C10.596917,10.8286957 10.606166,11.0224506 10.606166,11.2164427 L10.606166,14.7035573 L8.32142292,14.7035573 C8.32142292,14.7035573 8.35083004,8.79628458 8.32142292,8.25936759 L10.606166,8.25936759 L10.606166,9.27083004 C10.7411067,8.82853755 11.4713043,8.19747036 12.6362055,8.19747036 C14.0816601,8.19747036 15.2173913,9.12426877 15.2173913,11.1203953 L15.2173913,14.7035573 Z" id="Page-1" fill="#FFFFFF"></path>
                    </g>
                </g>
            </g>
        </g>
    </g>
</svg>