<?xml version="1.0" encoding="UTF-8" standalone="no"?>
<svg width="16px" height="16px" viewBox="0 0 16 16" version="1.1" xmlns="http://www.w3.org/2000/svg" xmlns:xlink="http://www.w3.org/1999/xlink">
    <!-- Generator: Sketch 40.1 (33804) - http://www.bohemiancoding.com/sketch -->
    <title>search</title>
    <desc>Created with Sketch.</desc>
    <defs></defs>
    <g id="Page-1" stroke="none" stroke-width="1" fill="none" fill-rule="evenodd">
        <g id="Home" transform="translate(-1384.000000, -22.000000)" fill="#202222">
            <g id="Nav">
                <g id="search" transform="translate(1383.000000, 22.000000)">
                    <path d="M16.66,13.543 L13.05,10.009 C13.661021,8.9803063 13.982372,7.80547471 13.98,6.609 C13.9200389,3.03879366 10.9877043,0.187416466 7.41721844,0.227407102 C3.84673257,0.267397738 0.978998328,3.18373764 0.999017268,6.75439135 C1.01903621,10.3250451 3.91929018,13.2090466 7.49,13.209 C8.74147571,13.2096274 9.96553534,12.8424095 11.01,12.153 L14.64,15.703 C14.8429076,15.8944956 15.111001,16.001733 15.39,16.003 L15.39,16.003 C15.6820876,16.0026932 15.962305,15.887373 16.17,15.682 L16.18,15.672 L16.69,15.107 C16.8936001,14.8969612 17.0051544,14.6144768 17,14.322 C17.0021571,14.0258893 16.8785859,13.7427659 16.66,13.543 L16.66,13.543 Z M7.49,10.87 C5.76081326,10.8984177 4.18604339,9.87860497 3.50462153,8.28908977 C2.82319967,6.69957456 3.17036875,4.85583061 4.38322621,3.62300008 C5.59608368,2.39016955 7.43391167,2.01293437 9.03434399,2.66830505 C10.6347763,3.32367574 11.6801725,4.88157978 11.68,6.611 C11.6898529,7.73161614 11.2537766,8.81017466 10.4678484,9.60904538 C9.68192017,10.4079161 8.61062759,10.8615494 7.49,10.87 L7.49,10.87 Z"></path>
                </g>
            </g>
        </g>
    </g>
</svg>