<?xml version="1.0" encoding="UTF-8" standalone="no"?>
<svg width="21px" height="20px" viewBox="0 0 21 20" version="1.1" xmlns="http://www.w3.org/2000/svg" xmlns:xlink="http://www.w3.org/1999/xlink">
    <!-- Generator: Sketch 40.1 (33804) - http://www.bohemiancoding.com/sketch -->
    <title>youtube</title>
    <desc>Created with Sketch.</desc>
    <defs>
        <polygon id="path-1" points="10.4347826 3.69563043 10.4347826 7.39126087 0 7.39126087 0 3.69563043 0 0 10.4347826 0 10.4347826 3.69563043"></polygon>
    </defs>
    <g id="Page-1" stroke="none" stroke-width="1" fill="none" fill-rule="evenodd">
        <g id="Home" transform="translate(-1462.000000, -2776.000000)">
            <g id="Footer" transform="translate(380.000000, 2588.000000)">
                <g id="Social" transform="translate(997.000000, 188.000000)">
                    <g id="youtube" transform="translate(85.000000, 0.000000)">
                        <ellipse id="Oval-3" fill="#AAAAAA" cx="10.6521739" cy="10" rx="10" ry="10"></ellipse>
                        <g id="YouTube" transform="translate(5.434783, 6.086957)">
                            <mask id="mask-2" fill="white">
                                <use xlink:href="#path-1"></use>
                            </mask>
                            <g id="Clip-2"></g>
                            <path d="M10.3304348,1.59434783 C10.3304348,1.59434783 10.2284783,0.870217391 9.91565217,0.551304348 C9.51869565,0.132608696 9.07391304,0.130652174 8.87021739,0.106304348 C7.41,0 5.21956522,0 5.21956522,0 L5.215,0 C5.215,0 3.02478261,0 1.56456522,0.106304348 C1.36043478,0.130652174 0.915869565,0.132608696 0.518913043,0.551304348 C0.206086957,0.870217391 0.104347826,1.59434783 0.104347826,1.59434783 C0.104347826,1.59434783 0,2.445 0,3.29521739 L0,4.0923913 C0,4.94304348 0.104347826,5.79326087 0.104347826,5.79326087 C0.104347826,5.79326087 0.206086957,6.5173913 0.518913043,6.83630435 C0.915869565,7.255 1.4373913,7.24173913 1.66956522,7.28543478 C2.50434783,7.36630435 5.2173913,7.39130435 5.2173913,7.39130435 C5.2173913,7.39130435 7.41,7.38804348 8.87021739,7.28152174 C9.07391304,7.25695652 9.51869565,7.255 9.91565217,6.83630435 C10.2284783,6.5173913 10.3304348,5.79326087 10.3304348,5.79326087 C10.3304348,5.79326087 10.4347826,4.94304348 10.4347826,4.0923913 L10.4347826,3.29521739 C10.4347826,2.445 10.3304348,1.59434783 10.3304348,1.59434783 L10.3304348,1.59434783 Z M4.14,5.05869565 L4.13956522,2.10608696 L6.95913043,3.5873913 L4.14,5.05869565 Z" id="Fill-1" fill="#FFFFFF" mask="url(#mask-2)"></path>
                        </g>
                    </g>
                </g>
            </g>
        </g>
    </g>
</svg>