<svg id="Layer_1" data-name="Layer 1" xmlns="http://www.w3.org/2000/svg" xmlns:xlink="http://www.w3.org/1999/xlink" viewBox="0 0 264.5 197.91"><defs><style>.cls-1,.cls-13,.cls-14,.cls-17,.cls-18,.cls-19,.cls-3{fill:none;}.cls-2,.cls-7{fill:#454546;}.cls-2{opacity:0.06;}.cls-10,.cls-13,.cls-14,.cls-17,.cls-18,.cls-19,.cls-3,.cls-4,.cls-6,.cls-9{stroke:#454546;stroke-linecap:round;stroke-linejoin:round;}.cls-10,.cls-3,.cls-4,.cls-6,.cls-9{stroke-width:2px;}.cls-12,.cls-4{fill:#e9f2f8;}.cls-5{fill:#d1dce3;}.cls-6{fill:#fff;}.cls-8{fill:#cc3e48;}.cls-11,.cls-9{fill:#f15b62;}.cls-10{fill:#f8f9f9;}.cls-13{stroke-width:1.98px;}.cls-14{stroke-width:1.97px;}.cls-15{clip-path:url(#clip-path);}.cls-16{opacity:0.14;}.cls-17{stroke-width:1.7px;}.cls-18{stroke-width:1.69px;}.cls-19{stroke-width:1.68px;}</style><clipPath id="clip-path" transform="translate(-180.38 -303.72)"><polygon class="cls-1" points="295.67 459.38 317.54 433.56 314.74 415.11 292.22 411.8 284.72 441.3 295.67 459.38"/></clipPath></defs><title>Flashboard_Illustration</title><path class="cls-2" d="M285.37,463.19l42.86-28.85a1.47,1.47,0,0,0,.44-2l-5.38-9a1.47,1.47,0,0,1,1.16-2.23l62.57-4.4a1.47,1.47,0,0,1,1.34.67l19.37,30.17a1.47,1.47,0,0,1-1.12,2.27c-9.4.78-42.84,3.57-44.56,3.83-1.55.23-3.42,3.53-4.19,5a1.47,1.47,0,0,1-1.17.78l-70.36,6.43a1.47,1.47,0,0,1-1.61-1.47h0A1.47,1.47,0,0,1,285.37,463.19Z" transform="translate(-180.38 -303.72)"/><polygon class="cls-3" points="175.49 37.39 189.17 39.42 153.7 1 100.22 26.21 111.92 27.95 86.1 104.35 109.18 107.78 92.05 170.2 161.09 87.45 138.68 84.13 175.49 37.39"/><polyline class="cls-4" points="153.7 1 167.31 4.78 197.67 37.62 189.17 39.42 185.5 39.04 152.75 81.43 175.42 84.64 108.61 163.55 92.05 170.2"/><polygon class="cls-5" points="189.17 39.42 154.22 1.56 167.31 4.78 197.67 37.62 189.17 39.42"/><polygon class="cls-5" points="139.99 83.87 155 81.43 173.75 84.64 160.1 87.31 139.99 83.87"/><polygon class="cls-6" points="175.49 37.39 189.17 39.42 153.7 1 100.22 26.21 111.92 27.95 86.1 104.35 109.18 107.78 92.05 170.2 161.09 87.45 138.68 84.13 175.49 37.39"/><line class="cls-3" x1="152.75" y1="81.43" x2="138.68" y2="84.12"/><line class="cls-3" x1="175.42" y1="84.64" x2="161.09" y2="87.45"/><path class="cls-3" d="M360.22,350.47" transform="translate(-180.38 -303.72)"/><path class="cls-3" d="M355.88,341.11" transform="translate(-180.38 -303.72)"/><ellipse class="cls-7" cx="332.46" cy="310.77" rx="1.98" ry="1.61" transform="matrix(0.2, -0.98, 0.98, 0.2, -217.82, 272.17)"/><ellipse class="cls-7" cx="295.26" cy="328.38" rx="1.98" ry="1.61" transform="translate(-265 249.84) rotate(-78.7)"/><ellipse class="cls-7" cx="357.5" cy="336.88" rx="1.98" ry="1.61" transform="translate(-223.29 317.71) rotate(-78.7)"/><ellipse class="cls-7" cx="333.13" cy="394.63" rx="1.98" ry="1.61" transform="translate(-299.51 340.25) rotate(-78.7)"/><polygon class="cls-8" points="152.78 97.41 159.5 96.25 161.09 93.75 167.71 93.75 108.61 163.55 93.19 168.83 152.78 97.41"/><polyline class="cls-3" points="92.05 170.2 108.61 163.55 175.42 84.64 152.75 81.43 185.5 39.04 189.17 39.42 197.67 37.62 167.31 4.78 153.7 1"/><path class="cls-9" d="M269.91,493c1.29,0,2.33-1.32,2.33-3s-1-3-2.33-3l-15.44,3.33v5.91Z" transform="translate(-180.38 -303.72)"/><ellipse class="cls-10" cx="74.09" cy="189.63" rx="2.33" ry="2.95"/><line class="cls-9" x1="91.01" y1="196.91" x2="82.97" y2="187.96"/><path class="cls-11" d="M219.72,476.21c-5.67.92-15.92,0.75-14.58,7.08s10.58,0.58,17.25,4.92,10.5,5.83,14.42,1.08,6-6.17,9.17-7,0.08-6.58-14.67-5.58S219.72,476.21,219.72,476.21Z" transform="translate(-180.38 -303.72)"/><path class="cls-10" d="M234.63,479.72c0,1.66-4.42,3-9.87,3s-9.87-1.35-9.87-3V462.38h19.75v17.33Z" transform="translate(-180.38 -303.72)"/><ellipse class="cls-9" cx="44.38" cy="158.66" rx="9.88" ry="3.01"/><ellipse class="cls-11" cx="65.75" cy="184.49" rx="2.5" ry="1.42"/><path class="cls-3" d="M214.88,463.63s8.13,14.75,21.25,11c5.75-2.08-3.16-10.58-3.16-10.58" transform="translate(-180.38 -303.72)"/><path class="cls-3" d="M387.88,401.13h11.5s1.75-6,8-3c0,0,3.75-8.81,12.5-8.81s12,8.81,12,8.81,5.75-2,7.75,3h4.25" transform="translate(-180.38 -303.72)"/><path class="cls-12" d="M216.38,377.63s6.36-3.77,9.16,1.8a12.49,12.49,0,1,0-19.81-11.56A14,14,0,0,1,216.38,377.63Z" transform="translate(-180.38 -303.72)"/><path class="cls-3" d="M181.38,381.88h9.75s-2-9.75,7.5-13.25,16.25,3.5,17.75,9c0,0,8-4.75,10,4.25h5.5" transform="translate(-180.38 -303.72)"/><polygon class="cls-11" points="89.67 93.8 100.17 94.58 100.17 87.31 114.34 87.45 114.29 89.58 125.5 89.75 125.5 96.25 135.33 96.25 135.33 94.58 145.72 94.58 145.72 96.25 153.76 96.25 94 167.86 92.89 167.14 109.18 107.78 86.1 104.35 89.67 93.8"/><polygon class="cls-3" points="175.49 37.39 189.17 39.42 153.7 1 100.22 26.21 111.92 27.95 86.1 104.35 109.18 107.78 92.05 170.2 161.09 87.45 138.68 84.13 175.49 37.39"/><ellipse class="cls-2" cx="301.32" cy="492.48" rx="4.64" ry="15.12" transform="translate(-412.3 410.09) rotate(-81.08)"/><line class="cls-3" x1="113.04" y1="186.94" x2="115.54" y2="112.94"/><line class="cls-3" x1="128.38" y1="188.94" x2="131.04" y2="114.78"/><line class="cls-3" x1="113.25" y1="180.93" x2="128.62" y2="182.28"/><line class="cls-13" x1="113.94" y1="170.74" x2="129.01" y2="172.08"/><line class="cls-14" x1="114.34" y1="160.96" x2="129.31" y2="162.31"/><line class="cls-14" x1="115.09" y1="140.08" x2="130.06" y2="141.42"/><line class="cls-14" x1="115.54" y1="119.6" x2="130.51" y2="120.94"/><line class="cls-14" x1="115.54" y1="129.84" x2="130.51" y2="131.18"/><line class="cls-3" x1="114.34" y1="151.19" x2="129.71" y2="152.53"/><ellipse class="cls-7" cx="280.56" cy="458.76" rx="1.98" ry="1.61" transform="matrix(0.2, -0.98, 0.98, 0.2, -404.67, 340.25)"/><ellipse class="cls-7" cx="272.43" cy="404.51" rx="1.98" ry="1.61" transform="matrix(0.2, -0.98, 0.98, 0.2, -358, 288.67)"/><g class="cls-15"><g class="cls-16"><line class="cls-17" x1="120.99" y1="175.77" x2="116.44" y2="113.78"/><line class="cls-17" x1="134.36" y1="176.01" x2="129.94" y2="113.86"/><line class="cls-17" x1="120.62" y1="170.74" x2="133.96" y2="170.43"/><line class="cls-18" x1="120.3" y1="162.16" x2="133.38" y2="161.88"/><line class="cls-19" x1="119.75" y1="153.97" x2="132.75" y2="153.69"/><line class="cls-19" x1="118.5" y1="136.47" x2="131.5" y2="136.19"/><line class="cls-19" x1="117.04" y1="119.33" x2="130.04" y2="119.06"/><line class="cls-19" x1="117.97" y1="127.88" x2="130.97" y2="127.6"/><line class="cls-17" x1="118.87" y1="145.81" x2="132.21" y2="145.5"/></g></g></svg>