<svg id="Layer_1" data-name="Layer 1" xmlns="http://www.w3.org/2000/svg" viewBox="0 0 302.55 53.31"><defs><style>.cls-1{fill:#fff;}.cls-2{fill:#f15b62;}</style></defs><title>Flashboard_Logo</title><path class="cls-1" d="M710.71,427h20.13l-1.22,7.18H718.09L717.42,438h10.34l-1.26,7.18H716.16l-1.66,9.43h-8.65Z" transform="translate(-672.6 -409.43)"/><path class="cls-1" d="M734,427h8.64L739,447.4h11.21L749,454.59H729.11Z" transform="translate(-672.6 -409.43)"/><path class="cls-1" d="M765.34,427h8.84l5,27.63h-8.45l-0.43-4.18h-8.41l-1.78,4.18H751Zm-0.51,16.62h4.74l-0.91-8.84Z" transform="translate(-672.6 -409.43)"/><path class="cls-1" d="M781.25,447.36a9.23,9.23,0,0,1,.2-1.86h8.13a3,3,0,0,0-.12.83c0,1.38,1.07,2.25,3.28,2.25,1.66,0,3.32-.79,3.32-2.37a1.32,1.32,0,0,0-1.11-1.38l-5.17-1.18c-4.22-1-6.55-3.12-6.55-6.95,0-6.55,4.34-10.3,11.72-10.3,5.37,0,10.15,2.53,10.15,7.42a9.43,9.43,0,0,1-.2,1.78h-8a4.31,4.31,0,0,0,.08-0.75c0-1.14-.67-1.89-2.41-1.89-1.3,0-2.64.36-2.64,1.86a1.11,1.11,0,0,0,.91,1.18l5.76,1.42c4,1,6.08,3.36,6.08,6.95,0,6.83-5.64,10.78-12.83,10.78C785.24,455.14,781.25,452.22,781.25,447.36Z" transform="translate(-672.6 -409.43)"/><path class="cls-1" d="M810.94,427h8.64l-1.78,9.83H825l1.74-9.83h8.65l-4.86,27.63h-8.64l1.74-9.91h-7.11l-1.74,9.91h-8.65Z" transform="translate(-672.6 -409.43)"/><path class="cls-1" d="M839.67,427H854.2a6.47,6.47,0,0,1,6.79,6.51,7,7,0,0,1-4.78,6.87,5.33,5.33,0,0,1,4.3,5.49c0,5.65-5.29,8.76-11.29,8.76H834.82Zm9.95,21.12a2.37,2.37,0,0,0,2.57-2.45,1.78,1.78,0,0,0-2-1.86h-5.09l-0.75,4.3h5.25Zm0.24-10.5a2.27,2.27,0,0,0,2.45-2.33,1.69,1.69,0,0,0-1.82-1.78h-3.55l-0.71,4.11h3.63Z" transform="translate(-672.6 -409.43)"/><path class="cls-1" d="M863.24,443.73a14.07,14.07,0,0,1,.24-2.57l0.59-3.36c1.34-7.7,5.88-11.41,13.58-11.41,7,0,12.43,4.14,12.43,11.17a20,20,0,0,1-.24,2.68l-0.55,3.12c-1.26,7.07-6,11.76-13.54,11.76S863.24,450.48,863.24,443.73Zm17.49-.83,0.63-3.55a9.65,9.65,0,0,0,.16-1.5,3.89,3.89,0,0,0-4.26-4.26c-2.84,0-4.1,1.66-4.66,4.85l-0.59,3.4a11,11,0,0,0-.2,1.78c0,2.61,1.22,4.34,4.18,4.34S880.17,445.94,880.73,442.9Z" transform="translate(-672.6 -409.43)"/><path class="cls-1" d="M902.48,427h8.84l5,27.63h-8.45l-0.43-4.18H899l-1.78,4.18h-9.08ZM902,443.57h4.74l-0.91-8.84Z" transform="translate(-672.6 -409.43)"/><path class="cls-1" d="M931.41,447.32h-2.76l-1.22,7.26h-8.65L923.63,427h13.9a8.67,8.67,0,0,1,9.08,9,10.45,10.45,0,0,1-6.32,10.07l3.91,8.53h-9.83Zm2.8-6.83a3.62,3.62,0,0,0,3.71-3.75,2.71,2.71,0,0,0-2.8-2.88h-4.07l-1.18,6.63h4.34Z" transform="translate(-672.6 -409.43)"/><path class="cls-1" d="M951.94,427H965.4c5.76,0,9.75,3.47,9.75,9a11.69,11.69,0,0,1-.2,2.29l-1.07,6c-1.22,6.87-5.21,10.3-13.18,10.3H947.08Zm8.49,20.69c2.88,0,4.42-1.07,4.89-3.83l0.95-5.37a5.91,5.91,0,0,0,.12-1.14c0-2.21-1.38-3.39-3.75-3.39h-3.32l-2.41,13.74h3.51Z" transform="translate(-672.6 -409.43)"/><polygon class="cls-2" points="28.16 11.47 32.47 12.11 21.3 0 4.45 7.94 8.13 8.49 0 32.56 7.27 33.64 1.87 53.31 23.63 27.24 16.57 26.19 28.16 11.47"/></svg>