<?xml version="1.0" encoding="UTF-8" standalone="no"?>
<svg width="18px" height="18px" viewBox="0 0 18 18" version="1.1" xmlns="http://www.w3.org/2000/svg" xmlns:xlink="http://www.w3.org/1999/xlink">
    <!-- Generator: Sketch 40.1 (33804) - http://www.bohemiancoding.com/sketch -->
    <title>Country</title>
    <desc>Created with Sketch.</desc>
    <defs></defs>
    <g id="Page-1" stroke="none" stroke-width="1" fill="none" fill-rule="evenodd">
        <g id="Home" transform="translate(-1468.000000, -21.000000)" fill="#000000">
            <g id="Nav">
                <g id="Country" transform="translate(1468.000000, 21.000000)">
                    <path d="M9.6,0.024 L9.6,0 L8.4,0 L8.4,0.02 C3.90291228,0.320396178 0.321469588,3.90098411 0.02,8.398 L0,8.398 L0,9.598 L0.02,9.598 C0.321948698,14.0946257 3.90326646,17.6746614 8.4,17.975 L8.4,18 L9.6,18 L9.6,17.978 C14.0992502,17.6832127 17.6836017,14.1001444 17.98,9.601 L18,9.601 L18,8.4 L17.98,8.4 C17.6826935,3.90143985 14.0987016,0.319158651 9.6,0.024 L9.6,0.024 Z M5.63,1.965 C5.00478003,2.82523755 4.52817661,3.78419067 4.22,4.802 L2.43,4.802 C3.21303399,3.57796157 4.32095357,2.59572162 5.63,1.965 L5.63,1.965 Z M1.8,6 L3.91,6 C3.74134549,6.78991414 3.64097527,7.59287595 3.61,8.4 L1.22,8.4 C1.28760082,7.57474637 1.48327762,6.76504925 1.8,6 L1.8,6 Z M1.22,9.6 L3.61,9.6 C3.64091601,10.4071289 3.74128687,11.2100958 3.91,12 L1.8,12 C1.4832466,11.2349608 1.28756861,10.4252588 1.22,9.6 L1.22,9.6 Z M2.43,13.2 L4.22,13.2 C4.52823171,14.2180963 5.00482626,15.1773696 5.63,16.038 C4.32070732,15.4071822 3.21273061,14.4245453 2.43,13.2 L2.43,13.2 Z M8.4,16.722 C7.17,16.393 6.11,15.068 5.46,13.2 L8.4,13.2 L8.4,16.722 L8.4,16.722 Z M8.4,12.001 L5.12,12.001 C4.94665866,11.2116087 4.84292742,10.4085281 4.81,9.601 L8.4,9.601 L8.4,12 L8.4,12.001 Z M8.4,8.401 L4.81,8.401 C4.8429428,7.59347322 4.94667388,6.79039393 5.12,6.001 L8.4,6.001 L8.4,8.401 L8.4,8.401 Z M8.4,4.801 L5.46,4.801 C6.11,2.933 7.17,1.608 8.4,1.28 L8.4,4.8 L8.4,4.801 Z M15.58,4.801 L13.78,4.801 C13.4718234,3.78319067 12.99522,2.82423755 12.37,1.964 C13.6799708,2.59685911 14.7905164,3.57801405 15.58,4.8 L15.58,4.801 Z M9.6,1.28 C10.83,1.609 11.9,2.933 12.54,4.801 L9.6,4.801 L9.6,1.281 L9.6,1.28 Z M9.6,6.001 L12.88,6.001 C13.0533261,6.79039393 13.1570572,7.59347322 13.19,8.401 L9.6,8.401 L9.6,6 L9.6,6.001 Z M9.6,9.601 L13.19,9.601 C13.162021,10.4089401 13.0582321,11.2124676 12.88,12.001 L9.6,12.001 L9.6,9.6 L9.6,9.601 Z M9.6,16.722 L9.6,13.2 L12.54,13.2 C11.9,15.067 10.83,16.392 9.6,16.722 L9.6,16.722 Z M12.37,16.038 C12.9951737,15.1773696 13.4717683,14.2180963 13.78,13.2 L15.58,13.2 C14.7908143,14.4224902 13.6802131,15.4040402 12.37,16.037 L12.37,16.038 Z M16.2,12 L14.1,12 C14.2652927,11.2097933 14.3623169,10.4068345 14.39,9.6 L16.78,9.6 C16.7220622,10.4267782 16.5260152,11.2380072 16.2,12 L16.2,12 Z M14.39,8.4 C14.3622627,7.59316969 14.265239,6.79021552 14.1,6 L16.2,6 C16.5259972,6.76199879 16.7220435,7.5732247 16.78,8.4 L14.39,8.4 L14.39,8.4 Z"></path>
                </g>
            </g>
        </g>
    </g>
</svg>