<?xml version="1.0" encoding="UTF-8" standalone="no"?>
<svg width="21px" height="20px" viewBox="0 0 21 20" version="1.1" xmlns="http://www.w3.org/2000/svg" xmlns:xlink="http://www.w3.org/1999/xlink">
    <!-- Generator: Sketch 40.1 (33804) - http://www.bohemiancoding.com/sketch -->
    <title>twitter</title>
    <desc>Created with Sketch.</desc>
    <defs>
        <polygon id="path-1" points="10.4347826 4.34779348 10.4347826 8.69558696 0 8.69558696 0 4.34779348 0 0 10.4347826 0"></polygon>
    </defs>
    <g id="Page-1" stroke="none" stroke-width="1" fill="none" fill-rule="evenodd">
        <g id="Home" transform="translate(-1433.000000, -2776.000000)">
            <g id="Footer" transform="translate(380.000000, 2588.000000)">
                <g id="Social" transform="translate(997.000000, 188.000000)">
                    <g id="twitter" transform="translate(56.000000, 0.000000)">
                        <ellipse id="Oval-3" fill="#AAAAAA" cx="10.9565217" cy="10" rx="10" ry="10"></ellipse>
                        <g id="Twitter" transform="translate(6.173913, 5.652174)">
                            <mask id="mask-2" fill="white">
                                <use xlink:href="#path-1"></use>
                            </mask>
                            <g id="Clip-2"></g>
                            <path d="M10.4347826,1.02934783 C10.0513043,1.20391304 9.63847826,1.32195652 9.20543478,1.37478261 C9.64782609,1.10347826 9.98695652,0.67326087 10.1469565,0.160652174 C9.73282609,0.411956522 9.27543478,0.594782609 8.78652174,0.692608696 C8.39717391,0.266304348 7.84021739,0 7.22413043,0 C6.0426087,0 5.08413043,0.982826087 5.08413043,2.195 C5.08413043,2.36717391 5.1026087,2.53413043 5.13934783,2.695 C3.36,2.60326087 1.78282609,1.73021739 0.726304348,0.400652174 C0.541956522,0.726086957 0.43673913,1.10347826 0.43673913,1.50543478 C0.43673913,2.26673913 0.814565217,2.93869565 1.38913043,3.3323913 C1.03869565,3.32173913 0.708043478,3.22195652 0.418913043,3.05869565 L0.418913043,3.08565217 C0.418913043,4.14956522 1.15695652,5.03717391 2.13695652,5.23804348 C1.9573913,5.28956522 1.76826087,5.31521739 1.57282609,5.31521739 C1.435,5.31521739 1.30021739,5.30217391 1.16978261,5.27630435 C1.4423913,6.14804348 2.2323913,6.78304348 3.16956522,6.8 C2.43695652,7.38913043 1.51347826,7.74021739 0.510869565,7.74021739 C0.338043478,7.74021739 0.167173913,7.73021739 0,7.71021739 C0.947608696,8.33195652 2.07326087,8.69565217 3.28173913,8.69565217 C7.21978261,8.69565217 9.37282609,5.35108696 9.37282609,2.45 C9.37282609,2.35456522 9.37086957,2.25913043 9.36717391,2.16543478 C9.78565217,1.85586957 10.1486957,1.46956522 10.4347826,1.02934783" id="Fill-1" fill="#FFFFFF" mask="url(#mask-2)"></path>
                        </g>
                    </g>
                </g>
            </g>
        </g>
    </g>
</svg>