<?xml version="1.0" encoding="UTF-8" standalone="no"?>
<svg width="17px" height="16px" viewBox="0 0 17 16" version="1.1" xmlns="http://www.w3.org/2000/svg" xmlns:xlink="http://www.w3.org/1999/xlink">
    <!-- Generator: Sketch 40.1 (33804) - http://www.bohemiancoding.com/sketch -->
    <title>Page 1</title>
    <desc>Created with Sketch.</desc>
    <defs>
        <polygon id="path-1" points="16.372 7.8423 16.372 15.6846 0 15.6846 0 7.8423 0 0 16.372 0 16.372 7.8423"></polygon>
    </defs>
    <g id="Page-1" stroke="none" stroke-width="1" fill="none" fill-rule="evenodd">
        <g id="Home" transform="translate(-1426.000000, -22.000000)">
            <g id="Nav">
                <g id="Page-1" transform="translate(1426.000000, 22.000000)">
                    <mask id="mask-2" fill="white">
                        <use xlink:href="#path-1"></use>
                    </mask>
                    <g id="Clip-2"></g>
                    <path d="M8.186,2.25 C9.621,2.25 10.788,3.411 10.788,4.837 C10.788,6.263 9.621,7.424 8.186,7.424 C6.751,7.424 5.584,6.263 5.584,4.837 C5.584,3.411 6.751,2.25 8.186,2.25 M11.592,8.275 C12.483,7.397 13.038,6.181 13.038,4.837 C13.038,2.17 10.861,0 8.186,0 C5.511,0 3.334,2.17 3.334,4.837 C3.334,6.181 3.889,7.397 4.78,8.275 C1.964,9.566 0,12.398 0,15.685 L2.25,15.685 C2.25,12.426 4.913,9.775 8.186,9.775 C11.459,9.775 14.122,12.426 14.122,15.685 L16.372,15.685 C16.372,12.398 14.408,9.566 11.592,8.275" id="Fill-1" fill="#020302" mask="url(#mask-2)"></path>
                </g>
            </g>
        </g>
    </g>
</svg>